<svg id="Calque_1" data-name="Calque 1" xmlns="http://www.w3.org/2000/svg" xmlns:xlink="http://www.w3.org/1999/xlink" viewBox="0 0 200.9 200.01"><defs><style>.cls-1,.cls-2,.cls-3,.cls-5{fill:none;}.cls-2,.cls-3{stroke:#ebb3a9;}.cls-2,.cls-3,.cls-5,.cls-7{stroke-miterlimit:10;}.cls-2{stroke-width:7px;}.cls-3,.cls-5{stroke-width:4px;}.cls-4{clip-path:url(#clip-path);}.cls-5,.cls-7{stroke:#fff;}.cls-6{fill:#e86252;}.cls-7{fill:#ebb3a9;stroke-width:3px;}</style><clipPath id="clip-path" transform="translate(0.45 0)"><path class="cls-1" d="M149.25,14.7A98.5,98.5,0,1,0,185.3,149.25,98.5,98.5,0,0,0,149.25,14.7ZM76.07,141.45a47.86,47.86,0,1,1,65.38-17.52A47.85,47.85,0,0,1,76.07,141.45Z"/></clipPath></defs><title>logo-boite-a-partage</title><circle class="cls-2" cx="100.45" cy="100" r="83.2"/><line class="cls-3" x1="28.39" y1="58.4" x2="172.51" y2="141.61"/><line class="cls-3" x1="100.45" y1="183.21" x2="100.45" y2="16.8"/><line class="cls-3" x1="28.39" y1="141.61" x2="172.51" y2="58.4"/><g id="cut-blanc-separation-people"><g class="cls-4"><line class="cls-5" x1="50.22" y1="186.99" x2="150.67" y2="13.01"/><line class="cls-5" x1="150.67" y1="186.99" x2="50.23" y2="13.01"/><line class="cls-5" y1="100" x2="200.9" y2="100"/></g></g><path class="cls-6" d="M104.31,92.67V18.76s7.54,4.76,9.59,6.15c19.94,1.83,37.79,18.19,44.91,25.84,2.63,2.82-1.49,11.74-1.49,11.74Z" transform="translate(0.45 0)"/><circle class="cls-7" cx="100.45" cy="16.8" r="15.3"/><circle class="cls-7" cx="172.51" cy="58.4" r="15.3"/><circle class="cls-7" cx="172.51" cy="141.61" r="15.3"/><circle class="cls-7" cx="100.45" cy="183.21" r="15.3"/><circle class="cls-7" cx="28.39" cy="141.61" r="15.3"/><circle class="cls-7" cx="28.39" cy="58.4" r="15.3"/></svg>