<svg xmlns="http://www.w3.org/2000/svg" viewBox="0 0 180 169.78"><defs><style>.cls-1{fill:none;stroke:#637b93;stroke-width:14px;}.cls-1,.cls-3{stroke-miterlimit:10;}.cls-2{fill:#fff;}.cls-3,.cls-4{fill:#637b93;}.cls-3{stroke:#fff;stroke-width:2px;}</style></defs><title>Fichier 1</title><g id="Calque_2" data-name="Calque 2"><g id="Calque_3_-_copie_3" data-name="Calque 3 - copie 3"><circle class="cls-1" cx="90" cy="79.78" r="70"/><path class="cls-2" d="M90,79.78H0A90,90,0,0,1,21.06,21.93Z"/><path class="cls-2" d="M90,79.78l30.78,84.57a89.13,89.13,0,0,1-15.15,4.06A90,90,0,0,1,90,169.78Z"/><path class="cls-2" d="M90,79.78h90a90,90,0,0,1-21.06,57.85Z"/><circle id="main" class="cls-3" cx="20" cy="79.78" r="7" transform="translate(-61.81 71.29) rotate(-70)"/><circle id="main-2" data-name="main" class="cls-3" cx="90" cy="149.78" r="7" transform="translate(-62.83 65.07) rotate(-30)"/><circle id="corps" class="cls-3" cx="40.5" cy="129.28" r="20" transform="translate(-11.11 4.02) rotate(-5)"/><g id="x3_pers" data-name="x3 pers"><circle id="corps-2" data-name="corps" class="cls-3" cx="66.06" cy="14" r="13" transform="translate(30.31 71.29) rotate(-70)"/><circle id="corps-3" data-name="corps" class="cls-3" cx="113.94" cy="14" r="13" transform="translate(8.26 58.85) rotate(-30)"/><circle id="corps-4" data-name="corps" class="cls-3" cx="150.62" cy="44.78" r="13" transform="translate(80.37 185.34) rotate(-80)"/></g><polygon class="cls-4" points="18.85 55.67 48.44 44.9 24.32 24.67 18.85 55.67"/><polygon class="cls-4" points="161.15 103.89 131.56 114.66 155.68 134.89 161.15 103.89"/></g></g></svg>